PathFileType	4	(X/Y/Z)	/Users/niels/Desktop/University/Third Semester/Perception and Action/Exam/Gymnastics Motion Tracking/Code for Gym Tracking/Analyzed Data/Webcam_Backflip/id1_2_trajectory_Sports2D/id1_2_trajectory_Sports2D_px_person00.trc
DataRate	CameraRate	NumFrames	NumMarkers	Units	OrigDataRate	OrigDataStartFrame	OrigNumFrames
29.92822966507177	29.92822966507177	12	22	m	29.92822966507177	104	418
Frame#	Time	Hip			RHip			RKnee			RAnkle			RBigToe			RSmallToe			RHeel			LHip			LKnee			LAnkle			LBigToe			LSmallToe			LHeel			Neck			Head			Nose			RShoulder			RElbow			RWrist			LShoulder			LElbow			LWrist		
		X1	Y1	Z1	X2	Y2	Z2	X3	Y3	Z3	X4	Y4	Z4	X5	Y5	Z5	X6	Y6	Z6	X7	Y7	Z7	X8	Y8	Z8	X9	Y9	Z9	X10	Y10	Z10	X11	Y11	Z11	X12	Y12	Z12	X13	Y13	Z13	X14	Y14	Z14	X15	Y15	Z15	X16	Y16	Z16	X17	Y17	Z17	X18	Y18	Z18	X19	Y19	Z19	X20	Y20	Z20	X21	Y21	Z21	X22	Y22	Z22
104	3.47498001598721	0.809255778312606	-0.6007574206430786	0.0	0.7888628570629449	-0.6061776959529467	0.0	0.7856662914814062	-0.8380682090413855	0.0	0.7604167259949933	-1.0523549106742687	0.0	0.8517748952234669	-1.0742669275602832	0.0	0.8255689382975689	-1.0831904055152275	0.0	0.7372271679143801	-1.0766242832139823	0.0	0.8290519407785326	-0.6071285138642039	0.0	0.8076629807366386	-0.8271737687016962	0.0	0.7687476852823919	-1.0363296946645544	0.0	0.8598253795262318	-1.062024296587969	0.0	0.851351289007139	-1.0541985641148424	0.0	0.7400728696351513	-1.0583065618718006	0.0	0.8125120317741693	-0.26939720674383644	0.0	0.8443492699530669	-0.13433207450202425	0.0	0.8544993609163698	-0.21137198533023105	0.0	0.7562274818717547	-0.3085999271455582	0.0	0.7383234092712451	-0.4703921189455306	0.0	0.7704946726923667	-0.6052647834204836	0.0	0.83923064095347	-0.3210334111660936	0.0	0.8435236167200173	-0.48171410543032206	0.0	0.8773188269038332	-0.6064448025842768	0.0
105	3.5083932853717026	0.8095236170296024	-0.6002244015817025	0.0	0.7890604223166454	-0.6054707317284267	0.0	0.7858512029437521	-0.8373170859560721	0.0	0.7603584009004737	-1.052025959769653	0.0	0.8516718147900773	-1.0739422842131756	0.0	0.8251435273322236	-1.0829070852366298	0.0	0.7369855623937672	-1.0762778556334236	0.0	0.8294888734017257	-0.60682564338432	0.0	0.8077201847110022	-0.8267672001879629	0.0	0.7688711375250805	-1.0362712690655282	0.0	0.8600845008459991	-1.0619312467827413	0.0	0.8514502900520183	-1.0539041216597234	0.0	0.7404407208570913	-1.0584455268482809	0.0	0.8128011184102483	-0.2692034089881051	0.0	0.8443474698593065	-0.13422245040651287	0.0	0.8547912852522604	-0.21090689696616657	0.0	0.7561571171443755	-0.30837480702135156	0.0	0.7381891684723771	-0.47033397247455255	0.0	0.7697160266766415	-0.6057093027196817	0.0	0.8396663883840947	-0.3210125289526288	0.0	0.8440225873806274	-0.48174718951074985	0.0	0.8769694520292682	-0.6066339400594397	0.0
106	3.541806554756195	0.8099346302903097	-0.5995828922198709	0.0	0.7892852174773113	-0.6046108627994714	0.0	0.7860943762594381	-0.8369466534550811	0.0	0.7602453395320731	-1.051679608029895	0.0	0.8516882471695415	-1.0736771646147367	0.0	0.8246016571613903	-1.082666299956054	0.0	0.7366714654165869	-1.0756298884520588	0.0	0.8301663449787228	-0.6062256476024532	0.0	0.8080190682506674	-0.8264340636630286	0.0	0.7692545096805086	-1.0360758962046737	0.0	0.8604695190960454	-1.061884299607794	0.0	0.8516701649801349	-1.0535149718002923	0.0	0.7411356020413997	-1.0581968162526714	0.0	0.8131502999420588	-0.26906915071881393	0.0	0.8445047418353719	-0.13381767790790713	0.0	0.85506356363254	-0.21038086503040118	0.0	0.7558739475473536	-0.30801626917367114	0.0	0.7378030220806704	-0.4701317285010774	0.0	0.7686657094013077	-0.6064025503170435	0.0	0.840046523600785	-0.3209938522195847	0.0	0.8445721187226416	-0.4815438736405116	0.0	0.8766203797436746	-0.6067173910609601	0.0
107	3.5752198241406874	0.8104184752785933	-0.5990017571839322	0.0	0.7895298584602926	-0.6039428400185685	0.0	0.7863366485915233	-0.8370800970040932	0.0	0.7600921087428852	-1.0513260686553	0.0	0.8517043313160105	-1.0736217092587677	0.0	0.8240253193590941	-1.0825497188590936	0.0	0.7363455428352134	-1.074859548537381	0.0	0.8308936251885217	-0.6055567324039682	0.0	0.808486463885377	-0.8263558928059294	0.0	0.7698529942669853	-1.0357746137206292	0.0	0.8608612051059977	-1.0619365216141325	0.0	0.8519000006659282	-1.0532032948734846	0.0	0.7420795787463482	-1.0576839199251395	0.0	0.8134917226645512	-0.26899236057809284	0.0	0.8448219050529614	-0.13316159563140526	0.0	0.8552852249602287	-0.20986576108161958	0.0	0.7554278716196895	-0.307533498295116	0.0	0.7372639470711592	-0.4697774030640599	0.0	0.7674350100614223	-0.607302149577274	0.0	0.8403271219562526	-0.32093570475745825	0.0	0.8450701382001803	-0.48108995885090206	0.0	0.8762973589848163	-0.6066856116160965	0.0
108	3.60863309352518	0.8109607999080537	-0.5985837241391172	0.0	0.7899067693989299	-0.6036089262813972	0.0	0.7866188147820612	-0.8375697272494642	0.0	0.7599000369218606	-1.050992958266892	0.0	0.8516423383351275	-1.073754538238322	0.0	0.8235419895807805	-1.082515878597791	0.0	0.7360428662344158	-1.0741422331956547	0.0	0.8316032642476429	-0.6049638030495076	0.0	0.8090539529793219	-0.8265404171254652	0.0	0.770572925317382	-1.0353558598441843	0.0	0.8611578172620693	-1.0619243959954052	0.0	0.8520732961177521	-1.0529035454934035	0.0	0.7430714558800513	-1.0569883455118585	0.0	0.8137868211542073	-0.2688815834733223	0.0	0.8452986942450856	-0.13235694121647917	0.0	0.8555114354738631	-0.20940771610480405	0.0	0.7549512999726642	-0.3069811563754754	0.0	0.736712760570448	-0.4692791722066847	0.0	0.7661031371248176	-0.608303661923109	0.0	0.840484443712246	-0.32078116328467216	0.0	0.8454454770288699	-0.48039059599562656	0.0	0.875962645024916	-0.6065672455656973	0.0
109	3.642046362909672	0.811589144493484	-0.598362246489403	0.0	0.7905157668141942	-0.6035561995035376	0.0	0.7870069938766843	-0.8381895268191317	0.0	0.7596832472100113	-1.0507850559976692	0.0	0.8515611982862619	-1.0739930023641902	0.0	0.8233314836398392	-1.0825218679315998	0.0	0.7357782669541886	-1.0736652879350164	0.0	0.832321799007815	-0.604515412065438	0.0	0.8096271696721954	-0.8269122003553493	0.0	0.7713006276100113	-1.0348971146535	0.0	0.8613805382664915	-1.0617504255817307	0.0	0.8522238010608388	-1.0525499890977525	0.0	0.7439454071039254	-1.0562826605063438	0.0	0.8140387280692623	-0.2686487423497707	0.0	0.8459182394331212	-0.1315314639879682	0.0	0.8558020104824823	-0.20903982622257242	0.0	0.75459937972263	-0.30642869804449946	0.0	0.736264669804246	-0.46864222152247154	0.0	0.7647173926232362	-0.6092732383504933	0.0	0.8405586081100374	-0.3204871034634389	0.0	0.8456668224032307	-0.4794931393873359	0.0	0.875535251463434	-0.6063865884668407	0.0
110	3.6754596322941646	0.8122812650048933	-0.5983418121615628	0.0	0.7913015755862612	-0.6036956327838906	0.0	0.7874444418407628	-0.8387891697200175	0.0	0.7594872069020338	-1.0507747778475292	0.0	0.851562191893959	-1.0742447306617604	0.0	0.8234973625070648	-1.0825746980558268	0.0	0.735612695040837	-1.0735260176494488	0.0	0.8330464207293741	-0.6042957743600004	0.0	0.8100267518676241	-0.8274068956734919	0.0	0.7718979401129569	-1.0345250832304962	0.0	0.8615687149415573	-1.0615135652288936	0.0	0.8523770054896301	-1.052230669258412	0.0	0.7445766988591657	-1.0558041747214233	0.0	0.8142711769963151	-0.2682681859011597	0.0	0.8466179060409965	-0.13081282859850993	0.0	0.8561776124464333	-0.20877160809368092	0.0	0.754480169229959	-0.3059015516796039	0.0	0.7359581154910078	-0.4678894549195113	0.0	0.763332001172974	-0.6100800382861497	0.0	0.8406499937032544	-0.3200555316612341	0.0	0.8457315434725592	-0.4785383674725115	0.0	0.8749562558017737	-0.6061523502267653	0.0
111	3.708872901678657	0.8129498936158693	-0.5985053048593817	0.0	0.7920992850702296	-0.6039882667919637	0.0	0.7877355378739206	-0.8392711192673935	0.0	0.7593237405878366	-1.050886062069224	0.0	0.8516517551406932	-1.0744014125013355	0.0	0.8239328046351543	-1.082654883322856	0.0	0.7356008571644677	-1.0736067356009202	0.0	0.8337082030009555	-0.6043931687015967	0.0	0.8100731429634674	-0.8279612922456638	0.0	0.7722628148171674	-1.034291618259419	0.0	0.8616934942353578	-1.0613844099643859	0.0	0.8524794727993277	-1.052096969419202	0.0	0.7448949580266475	-1.0556602356839768	0.0	0.8144992282939794	-0.26777646223126716	0.0	0.8472980326471129	-0.13029419042760262	0.0	0.8566015805498342	-0.20854566346144993	0.0	0.7546339072991926	-0.30534946292110215	0.0	0.735760618855593	-0.4670398851731605	0.0	0.7620461057960494	-0.6106319059636781	0.0	0.840858101802214	-0.3195315316489397	0.0	0.845662033005823	-0.4777212942653544	0.0	0.8742494034516763	-0.605932542101711	0.0
112	3.7422861710631494	0.8135098824761811	-0.598772549018806	0.0	0.7927715558748375	-0.6043765233642406	0.0	0.7877233058678087	-0.8395521840781892	0.0	0.7591431466283378	-1.0509705111652348	0.0	0.8517115209839341	-1.074417841075323	0.0	0.8243277734026976	-1.0826943492672598	0.0	0.7357087347762563	-1.0736991079887444	0.0	0.8342278438267464	-0.6047821936480458	0.0	0.8097641426971258	-0.8284926045139295	0.0	0.7723961179444142	-1.034204571319696	0.0	0.8617227436214955	-1.0614440890191812	0.0	0.8524738968675742	-1.0522205449262063	0.0	0.7449732695984382	-1.0557674179683325	0.0	0.8147158888796874	-0.26725340782949014	0.0	0.8478820830373847	-0.1299954416790264	0.0	0.8570141923256189	-0.20827050694967897	0.0	0.755040386127653	-0.30473011806863437	0.0	0.7356192097106249	-0.4661186739801082	0.0	0.7609734402155612	-0.6109211409807082	0.0	0.8412296387243493	-0.3189824288376728	0.0	0.8455145390870983	-0.47716619946045274	0.0	0.873510930795801	-0.6058409555415316	0.0
113	3.775699440447642	0.8139435777474354	-0.5990104646007698	0.0	0.7932817587709753	-0.6047192887791476	0.0	0.7874542854716826	-0.8395885097399883	0.0	0.7589183403590983	-1.050948157889185	0.0	0.8516164744249975	-1.0743838110266324	0.0	0.8243952087158906	-1.0826627201864756	0.0	0.7358446994555138	-1.0737306934452082	0.0	0.83458103295471	-0.6052652175970965	0.0	0.8093159716323732	-0.8289110391252332	0.0	0.7723875280312953	-1.0342898400462406	0.0	0.8617006586966329	-1.0616430039266118	0.0	0.8523851750619561	-1.0525540085401348	0.0	0.7449919872020464	-1.0559796234189278	0.0	0.8149268056288775	-0.2667666769527162	0.0	0.8483780685858822	-0.12987169354888042	0.0	0.857412240938713	-0.20791227695816095	0.0	0.7556193366120584	-0.3041006312738182	0.0	0.7355010379738468	-0.4652143237319611	0.0	0.760180081755269	-0.6110359197408811	0.0	0.8417409895351641	-0.3184730869800141	0.0	0.845359456477974	-0.47686705039699073	0.0	0.8728701049771062	-0.6059445133485608	0.0
114	3.8091127098321342	0.8142955607605363	-0.5991239600848484	0.0	0.7936731017285302	-0.6048873088866958	0.0	0.7871197344050513	-0.8394797347893347	0.0	0.7587275052827949	-1.050924579245021	0.0	0.8513988158052894	-1.0744832513409524	0.0	0.8241444174376498	-1.0826580446699356	0.0	0.7359496734800925	-1.0738257806608127	0.0	0.8347983808545423	-0.605597851366333	0.0	0.8089620169687772	-0.8291852644810439	0.0	0.7723550733007881	-1.034605110023535	0.0	0.8617243345649288	-1.0618926030408784	0.0	0.8523059411465199	-1.0530123587348588	0.0	0.7450818201936383	-1.0562561093459135	0.0	0.8151784909028529	-0.26631947719158755	0.0	0.8488625907660341	-0.1298483460676526	0.0	0.8578631847521849	-0.20748978647171332	0.0	0.7562651547935115	-0.30357831680830916	0.0	0.73542186567593	-0.464470824290477	0.0	0.7596633358402713	-0.6111243987250841	0.0	0.8423243301599002	-0.3180633529522075	0.0	0.8452896776789226	-0.4767491571787206	0.0	0.8724659320426008	-0.6062210957275936	0.0
115	3.8425259792166266	0.8146012710807434	-0.5991119403236369	0.0	0.7939891906609555	-0.6049036094394964	0.0	0.7868738406291093	-0.8394822087781727	0.0	0.758709101083614	-1.0511346811602928	0.0	0.8512110910900782	-1.074851014144286	0.0	0.8238495337144616	-1.082844558276144	0.0	0.7360578269885343	-1.0741556157501693	0.0	0.8349041623844607	-0.605690472084624	0.0	0.8087427537690265	-0.8293533820812901	0.0	0.7723551397228808	-1.0351984272049664	0.0	0.8618349908165986	-1.0621365552458724	0.0	0.8523022959329302	-1.0535224706833435	0.0	0.7452091059323164	-1.0566513466106828	0.0	0.815526127584223	-0.2658821462196675	0.0	0.8493868052045171	-0.12983075229937957	0.0	0.8584268303069785	-0.20702081235562986	0.0	0.75690488402837	-0.3032509571557573	0.0	0.7354442240263845	-0.4640281307937884	0.0	0.7593885775960397	-0.6113458187200445	0.0	0.8429124332097637	-0.31780048020413976	0.0	0.8454161758321957	-0.4767478007705255	0.0	0.8723904638953599	-0.6065547930924717	0.0
